<svg width="11" height="11" viewBox="0 0 11 11" fill="none" xmlns="http://www.w3.org/2000/svg">
<g clip-path="url(#clip0_313_444)">
<path d="M10.9489 3.97369C10.868 3.73286 10.6264 3.56733 10.2861 3.51951L7.58706 3.14001L6.38004 0.77373C6.22781 0.475342 5.99045 0.304199 5.72877 0.304199C5.46709 0.304199 5.22972 0.475342 5.07752 0.77373L3.87053 3.13999L1.17149 3.51949C0.831123 3.56731 0.589553 3.73286 0.508675 3.97365C0.427817 4.21445 0.522698 4.48575 0.768942 4.718L2.72198 6.55987L2.26092 9.16075C2.20029 9.50285 2.30325 9.70744 2.40033 9.81882C2.51387 9.9491 2.6795 10.0209 2.86672 10.0209C3.00826 10.0209 3.15901 9.98072 3.31467 9.90149L5.72877 8.67352L8.14286 9.90145C8.29857 9.98066 8.4493 10.0208 8.59086 10.0208H8.5909C8.77814 10.0208 8.94377 9.9491 9.05731 9.8188C9.15436 9.70744 9.25734 9.50283 9.1967 9.16071L8.73558 6.55989L10.6886 4.71804C10.9349 4.48579 11.0297 4.21447 10.9489 3.97369Z" fill="#FF8412"/>
</g>
<defs>
<clipPath id="clip0_313_444">
<rect width="10.4966" height="10.1557" fill="white" transform="translate(0.480469 0.0849609)"/>
</clipPath>
</defs>
</svg>
